<svg xmlns="http://www.w3.org/2000/svg" width="200" height="200" viewBox="0 0 24 24"><path fill="currentColor" d="M12.077 2.001a9.99 9.99 0 0 1 7.077 3.014A10.01 10.01 0 0 1 22 12.167c-.678 13.192-19.556 13.08-20-.155a9.953 9.953 0 0 1 2.936-7.127a9.932 9.932 0 0 1 7.141-2.884m1.818 8.376s.016.01-.107.166a5.43 5.43 0 0 1-.489.512l-2.544 2.47c-.544.544-.533.878.1 1.334c.811.578 1.633 1.112 2.467 1.68c.833.567 1.855 1.4 2.278.177a6.6 6.6 0 0 0 .244-1c.178-.98.356-1.958.511-2.948c.211-1.39.411-2.78.589-4.182c.089-.69-.278-1.001-.967-.834a5.552 5.552 0 0 0-.833.266l-7.256 3.06c-.688.288-1.377.6-2.055.934c-.167.088-.378.333-.367.5c.011.167.245.356.434.434c.466.189.966.322 1.455.478a2.375 2.375 0 0 0 2.222-.367a78.078 78.078 0 0 1 2.811-1.913c.445-.3.756-.467 1.19-.768c.222-.11.272-.162.317-.095z"/></svg>